<svg xmlns="http://www.w3.org/2000/svg" width="512" height="512" viewBox="0 0 512 512" role="img" aria-labelledby="title desc">
<title id="title">TessellNation favicon</title>
<desc id="desc">TessellNation favicon mark.</desc>
<style>
.word { font-family: Poppins, Montserrat, Avenir Next, Arial, sans-serif; font-weight: 700; letter-spacing: -4px; }
.tag { font-family: Poppins, Montserrat, Avenir Next, Arial, sans-serif; font-weight: 500; letter-spacing: 6px; }
</style>
<rect width="100%" height="100%" fill="#FFFFFF"/>
<g transform="translate(72 72) scale(1.05)">
<line x1="48" y1="50" x2="132" y2="60" stroke="#0F1720" stroke-width="8" stroke-linecap="round"/>
<line x1="132" y1="60" x2="216" y2="48" stroke="#E16A4A" stroke-width="8" stroke-linecap="round"/>
<line x1="216" y1="48" x2="300" y2="64" stroke="#0F1720" stroke-width="8" stroke-linecap="round"/>
<line x1="56" y1="148" x2="138" y2="136" stroke="#E16A4A" stroke-width="8" stroke-linecap="round"/>
<line x1="138" y1="136" x2="222" y2="154" stroke="#0F1720" stroke-width="8" stroke-linecap="round"/>
<line x1="222" y1="154" x2="310" y2="142" stroke="#E16A4A" stroke-width="8" stroke-linecap="round"/>
<line x1="42" y1="244" x2="128" y2="252" stroke="#0F1720" stroke-width="8" stroke-linecap="round"/>
<line x1="128" y1="252" x2="218" y2="236" stroke="#E16A4A" stroke-width="8" stroke-linecap="round"/>
<line x1="218" y1="236" x2="298" y2="256" stroke="#0F1720" stroke-width="8" stroke-linecap="round"/>
<line x1="58" y1="334" x2="146" y2="318" stroke="#E16A4A" stroke-width="8" stroke-linecap="round"/>
<line x1="146" y1="318" x2="230" y2="334" stroke="#0F1720" stroke-width="8" stroke-linecap="round"/>
<line x1="230" y1="334" x2="316" y2="320" stroke="#E16A4A" stroke-width="8" stroke-linecap="round"/>
<line x1="48" y1="50" x2="56" y2="148" stroke="#E16A4A" stroke-width="8" stroke-linecap="round"/>
<line x1="56" y1="148" x2="42" y2="244" stroke="#0F1720" stroke-width="8" stroke-linecap="round"/>
<line x1="42" y1="244" x2="58" y2="334" stroke="#E16A4A" stroke-width="8" stroke-linecap="round"/>
<line x1="132" y1="60" x2="138" y2="136" stroke="#0F1720" stroke-width="8" stroke-linecap="round"/>
<line x1="138" y1="136" x2="128" y2="252" stroke="#E16A4A" stroke-width="8" stroke-linecap="round"/>
<line x1="128" y1="252" x2="146" y2="318" stroke="#0F1720" stroke-width="8" stroke-linecap="round"/>
<line x1="216" y1="48" x2="222" y2="154" stroke="#E16A4A" stroke-width="8" stroke-linecap="round"/>
<line x1="222" y1="154" x2="218" y2="236" stroke="#0F1720" stroke-width="8" stroke-linecap="round"/>
<line x1="218" y1="236" x2="230" y2="334" stroke="#E16A4A" stroke-width="8" stroke-linecap="round"/>
<line x1="300" y1="64" x2="310" y2="142" stroke="#0F1720" stroke-width="8" stroke-linecap="round"/>
<line x1="310" y1="142" x2="298" y2="256" stroke="#E16A4A" stroke-width="8" stroke-linecap="round"/>
<line x1="298" y1="256" x2="316" y2="320" stroke="#0F1720" stroke-width="8" stroke-linecap="round"/>
<circle cx="48" cy="50" r="15" fill="#0F1720"/>
<circle cx="132" cy="60" r="15" fill="#E16A4A"/>
<circle cx="216" cy="48" r="15" fill="#0F1720"/>
<circle cx="300" cy="64" r="15" fill="#E16A4A"/>
<circle cx="56" cy="148" r="15" fill="#E16A4A"/>
<circle cx="138" cy="136" r="15" fill="#0F1720"/>
<circle cx="222" cy="154" r="15" fill="#E16A4A"/>
<circle cx="310" cy="142" r="15" fill="#0F1720"/>
<circle cx="42" cy="244" r="15" fill="#0F1720"/>
<circle cx="128" cy="252" r="15" fill="#E16A4A"/>
<circle cx="218" cy="236" r="15" fill="#0F1720"/>
<circle cx="298" cy="256" r="15" fill="#E16A4A"/>
<circle cx="58" cy="334" r="15" fill="#E16A4A"/>
<circle cx="146" cy="318" r="15" fill="#0F1720"/>
<circle cx="230" cy="334" r="15" fill="#E16A4A"/>
<circle cx="316" cy="320" r="15" fill="#0F1720"/>
</g>
</svg>
